<svg xmlns="http://www.w3.org/2000/svg" version="1.1" xmlns:xlink="http://www.w3.org/1999/xlink" xmlns:svgjs="http://svgjs.dev/svgjs" width="1500" height="530" viewBox="0 0 1500 530"><g transform="matrix(1,0,0,1,-0.9090909090909918,-0.28746623940548943)"><svg viewBox="0 0 396 140" data-background-color="#ffffff" preserveAspectRatio="xMidYMid meet" height="530" width="1500" xmlns="http://www.w3.org/2000/svg" xmlns:xlink="http://www.w3.org/1999/xlink"><g id="tight-bounds" transform="matrix(1,0,0,1,0.2400000000000091,0.07593447833352229)"><svg viewBox="0 0 395.52 139.84813104333293" height="139.84813104333293" width="395.52"><g><svg viewBox="0 0 675.2265979297144 238.7469097674418" height="139.84813104333293" width="395.52"><g transform="matrix(1,0,0,1,0,23.037491412630274)"><svg viewBox="0 0 395.5199999999999 192.67192694218124" height="192.67192694218124" width="395.5199999999999"><g id="textblocktransform"><svg viewBox="0 0 395.5199999999999 192.67192694218124" height="192.67192694218124" width="395.5199999999999" id="textblock"><g><svg viewBox="0 0 395.5199999999999 149.4232278152569" height="149.4232278152569" width="395.5199999999999"><g transform="matrix(1,0,0,1,0,0)"><svg width="395.5199999999999" viewBox="4 -35.7 96.35 36.400000000000006" height="149.4232278152569" data-palette-color="#a437db"><path d="M16.95 0L4 0 4-35 16.95-35Q22.03-35 25.95-32.93 29.88-30.85 32.11-26.94 34.35-23.03 34.35-17.5L34.35-17.5Q34.35-11.98 32.11-8.06 29.88-4.15 25.95-2.08 22.03 0 16.95 0L16.95 0ZM8.75-30.7L8.75-4.3 16.95-4.3Q20.95-4.3 23.66-5.96 26.38-7.63 27.76-10.6 29.15-13.58 29.15-17.5L29.15-17.5Q29.15-21.43 27.76-24.4 26.38-27.38 23.66-29.04 20.95-30.7 16.95-30.7L16.95-30.7 8.75-30.7ZM53.3 0L40.35 0 40.35-35 53.3-35Q58.37-35 62.3-32.93 66.22-30.85 68.46-26.94 70.7-23.03 70.7-17.5L70.7-17.5Q70.7-11.98 68.46-8.06 66.22-4.15 62.3-2.08 58.37 0 53.3 0L53.3 0ZM45.1-30.7L45.1-4.3 53.3-4.3Q57.3-4.3 60.01-5.96 62.72-7.63 64.11-10.6 65.5-13.58 65.5-17.5L65.5-17.5Q65.5-21.43 64.11-24.4 62.72-27.38 60.01-29.04 57.3-30.7 53.3-30.7L53.3-30.7 45.1-30.7ZM86.7 0.7L86.7 0.7Q84.52 0.7 82.35 0.38 80.17 0.05 78.32-0.46 76.47-0.98 75.25-1.55L75.25-1.55 75.9-6.6Q77.25-5.95 79.16-5.25 81.07-4.55 83.3-4.08 85.52-3.6 87.8-3.6L87.8-3.6Q91.17-3.6 93.16-4.84 95.15-6.08 95.15-8.7L95.15-8.7Q95.15-10.68 94.15-11.94 93.15-13.2 91.13-14.1 89.12-15 86.1-15.9L86.1-15.9Q83.22-16.75 80.8-17.91 78.37-19.07 76.91-21.04 75.45-23 75.45-26.25L75.45-26.25Q75.45-29.03 76.88-31.16 78.32-33.3 81.11-34.5 83.9-35.7 87.95-35.7L87.95-35.7Q91.4-35.7 94.28-34.95 97.17-34.2 99.05-33.3L99.05-33.3 98.55-28.25Q95.7-29.95 93.11-30.68 90.52-31.4 87.75-31.4L87.75-31.4Q84.67-31.4 82.66-30.25 80.65-29.1 80.65-26.5L80.65-26.5Q80.65-24.75 81.55-23.64 82.45-22.53 84.22-21.74 86-20.95 88.65-20.15L88.65-20.15Q92.3-19.05 94.92-17.64 97.55-16.23 98.95-14.16 100.35-12.1 100.35-9.05L100.35-9.05Q100.35-6.8 99.5-5 98.65-3.2 96.95-1.93 95.25-0.65 92.68 0.03 90.12 0.7 86.7 0.7Z" opacity="1" transform="matrix(1,0,0,1,0,0)" fill="#a437db" class="wordmark-text-0" data-fill-palette-color="primary" id="text-0"></path></svg></g></svg></g><g transform="matrix(1,0,0,1,163.310208,184.6984657449715)"><svg viewBox="0 0 232.20979199999994 7.973461197209753" height="7.973461197209753" width="232.20979199999994"><g transform="matrix(1,0,0,1,0,0)"><svg width="232.20979199999994" viewBox="3.7 -26.15 924.5799999999999 31.75" height="7.973461197209753" data-palette-color="#bb84e8"><path d="M15.75-26.15L15.75-26.15Q25.4-26.15 31.45-23.75L31.45-23.75Q33.6-19.45 33.6-15.05L33.6-15.05Q33.6-9.4 29.75-5.25L29.75-5.25Q24.15 0.7 14.6 0.7L14.6 0.7Q11.3 0.7 5.65-0.05L5.65-0.05Q3.7-10.1 3.7-18.6L3.7-18.6Q3.7-21.55 4-25L4-25Q12.05-26.15 15.75-26.15ZM17.25-22.4L17.25-22.4Q16.35-13 16.35-8.93 16.35-4.85 16.5-2.3L16.5-2.3Q19.2-3.75 20.73-7.18 22.25-10.6 22.25-14.13 22.25-17.65 20.98-19.9 19.7-22.15 17.25-22.4ZM39.45-25L52.95-25 52.95-23.65Q52.95-10.45 51.3 0L51.3 0 39.3 0Q40.25-4.6 40.25-10.63 40.25-16.65 39.45-25L39.45-25ZM76.5-2.45L76.5-2.45 76.55-4.55Q76.55-8.1 75.95-13L75.95-13 86.75-13Q86.75-5.9 86.05 0L86.05 0Q78.3 1.1 70 1.1L70 1.1 66.8 1.1Q62.25-0.85 59.7-4.63 57.15-8.4 57.15-12.65L57.15-12.65Q57.15-18.3 61.72-22.23 66.3-26.15 75.1-26.15L75.1-26.15Q79.7-26.15 85.35-24.9L85.35-24.9Q84.5-21.5 83.4-18.9L83.4-18.9Q80.35-18.7 76.85-18.6L76.85-18.6Q77.4-20.3 77.65-21.95L77.65-21.95Q76.05-22.25 74.37-22.25 72.7-22.25 70.4-21.7L70.4-21.7Q69.6-18.3 69.6-15.55L69.6-15.55Q69.6-11.4 71.47-7.78 73.35-4.15 76.5-2.45ZM92.99-25L106.49-25 106.49-23.65Q106.49-10.45 104.84 0L104.84 0 92.84 0Q93.79-4.6 93.79-10.63 93.79-16.65 92.99-25L92.99-25ZM132.84-21.75L132.84-21.75Q131.54-13.85 131.54-8.85 131.54-3.85 131.94 0L131.94 0 121.04 0Q119.34-7.95 119.34-17.1L119.34-17.1Q119.34-18.65 119.44-21.75L119.44-21.75Q115.19-20.5 114.24-16L114.24-16 109.29-16.3 111.09-25 144.34-25Q143.34-19.5 142.04-16L142.04-16 136.99-16.3Q137.19-17.1 137.19-17.9L137.19-17.9Q137.19-19.85 135.99-20.8 134.79-21.75 132.84-21.75ZM178.99-0.4L178.99-0.4 178.99 0 167.39 0Q167.19-2.85 166.54-5.9L166.54-5.9Q163.44-2.75 159.54 0L159.54 0 147.89 0Q147.54-2.05 147.54-5.43 147.54-8.8 148.54-12.2L148.54-12.2Q152.14-13.25 155.46-15.75 158.79-18.25 160.29-21.15L160.29-21.15Q158.94-23.25 157.44-25L157.44-25 174.04-25Q178.99-14.25 178.99-0.4ZM165.64-9.55L165.64-9.55Q164.34-14 162.24-17.95L162.24-17.95Q159.89-11.05 159.54-4.9L159.54-4.9Q163.14-6.75 165.64-9.55ZM193.63-3.85Q195.99-3.3 198.13-3.3 200.28-3.3 201.56-4.28 202.84-5.25 203.44-7.65L203.44-7.65 209.44-7.45Q208.69-2.95 207.44 0L207.44 0 182.88 0Q181.94-6.4 181.94-13.25 181.94-20.1 182.63-25L182.63-25 197.03-25Q193.74-12.35 193.63-3.85L193.63-3.85ZM243.28-26.15L243.28-26.15Q252.93-26.15 258.98-23.75L258.98-23.75Q261.13-19.45 261.13-15.05L261.13-15.05Q261.13-9.4 257.28-5.25L257.28-5.25Q251.68 0.7 242.13 0.7L242.13 0.7Q238.83 0.7 233.18-0.05L233.18-0.05Q231.23-10.1 231.23-18.6L231.23-18.6Q231.23-21.55 231.53-25L231.53-25Q239.58-26.15 243.28-26.15ZM244.78-22.4L244.78-22.4Q243.88-13 243.88-8.93 243.88-4.85 244.03-2.3L244.03-2.3Q246.73-3.75 248.25-7.18 249.78-10.6 249.78-14.13 249.78-17.65 248.5-19.9 247.23-22.15 244.78-22.4ZM269.58-0.15L269.58-0.15Q265.13-5.85 265.13-11.85 265.13-17.85 270.13-22 275.13-26.15 282.93-26.15L282.93-26.15Q287.08-26.15 291.18-24.9L291.18-24.9Q294.78-20.35 294.78-15.15L294.78-15.15Q294.78-8.6 289.43-3.75 284.08 1.1 276.48 1.1L276.48 1.1Q273.23 1.1 269.58-0.15ZM277.18-21.8L277.18-21.8Q275.43-18.8 275.43-14.75 275.43-10.7 277.2-7.28 278.98-3.85 282.08-2.35L282.08-2.35Q284.43-5.35 284.43-9.3 284.43-13.25 282.5-16.65 280.58-20.05 277.18-21.8ZM318.77-21.95L318.77-21.95Q317.02-22.25 315.4-22.25 313.77-22.25 311.47-21.7L311.47-21.7Q310.72-18.55 310.72-15.55L310.72-15.55Q310.72-7.8 317.63-3.65L317.63-3.65Q322.22-6.7 325.93-11.25L325.93-11.25Q326.07-9.25 326.18-5.15L326.18-5.15Q322.47-2.25 318.63-0.6 314.77 1.05 309.02 1.05L309.02 1.05 307.88 1.05Q303.38-0.9 300.8-4.7 298.22-8.5 298.22-12.7L298.22-12.7Q298.22-18.3 302.82-22.23 307.43-26.15 316.18-26.15L316.18-26.15Q321.07-26.15 326.43-24.9L326.43-24.9Q325.63-21.75 324.43-18.95L324.43-18.95Q321.27-18.65 317.93-18.65L317.93-18.65Q318.43-20.05 318.77-21.95ZM354.42-25L360.82-25Q361.02-21.75 361.02-15.53 361.02-9.3 360.22-2.25L360.22-2.25Q355.02 1.1 347.77 1.1L347.77 1.1Q338.12 1.1 332.17-2.25L332.17-2.25Q331.52-7.65 331.52-12.73 331.52-17.8 332.27-25L332.27-25 345.72-25Q343.72-14.15 343.62-4.15L343.62-4.15Q345.72-2.25 349.67-2.25 353.62-2.25 355.72-3.65L355.72-3.65Q355.82-5.3 355.82-8.4L355.82-8.4Q355.82-16.3 354.42-25L354.42-25ZM395.82-22.7L395.82-22.7Q395.82-24.05 395.42-25L395.42-25 409.67-25Q411.47-20.2 412.35-13.25 413.22-6.3 413.27 0L413.27 0 401.72 0Q401.37-9 398.77-17.35L398.77-17.35Q394.42-8.85 394.07 0L394.07 0 384.27 0Q382.97-9.8 379.27-17.4L379.27-17.4Q376.57-11.05 376.57-5.6L376.57-5.6Q376.57-2.65 377.27 0L377.27 0 365.12 0Q364.77-2.05 364.77-5.43 364.77-8.8 365.77-12.2L365.77-12.2Q369.32-13.25 372.6-15.65 375.87-18.05 377.42-20.9L377.42-20.9Q376.12-23.05 374.67-25L374.67-25 390.47-25Q392.37-19.85 393.32-13.8L393.32-13.8Q395.82-18.45 395.82-22.7ZM436.32-14.95L436.32-14.95 441.02-14.65Q441.72-14.65 442.07-14.7L442.07-14.7 439.72-10.3 439.27-10.3Q438.32-10.3 436.57-10.83 434.82-11.35 434.07-11.35L434.07-11.35Q432.02-11.35 430.82-8.7L430.82-8.7Q430.62-6.25 430.52-3.8L430.52-3.8Q433.12-3.3 434.62-3.3L434.62-3.3 435.07-3.3Q437.22-3.3 438.49-4.25 439.77-5.2 440.32-7.65L440.32-7.65 446.32-7.4Q445.57-3.1 444.32 0L444.32 0 419.77 0Q418.77-6.75 418.77-13.4 418.77-20.05 419.47-25L419.47-25 446.27-25Q445.37-19.6 444.67-17.4L444.67-17.4Q441.72-17.25 439.27-17.2L439.27-17.2Q439.67-18.35 439.67-19.35L439.67-19.35Q439.67-21.75 436.07-21.75L436.07-21.75Q434.72-21.75 433.07-21.45L433.07-21.45Q431.97-16.7 431.37-13.1L431.37-13.1Q433.37-14.95 436.32-14.95ZM475.47-25L481.42-25Q481.72-19.75 481.72-13.93 481.72-8.1 481.22 0L481.22 0 476.42 0Q466.72-5.2 458.62-14.15L458.62-14.15Q459.02-10.8 459.02-7.28 459.02-3.75 458.77 0L458.77 0 452.92 0Q453.92-6.15 453.92-11.38 453.92-16.6 453.42-19.65L453.42-19.65Q451.42-22.65 450.27-25L450.27-25 464.47-25Q466.57-21.4 470.19-17.57 473.82-13.75 477.12-11.6L477.12-11.6Q477.12-18.9 475.47-25L475.47-25ZM508.46-21.75L508.46-21.75Q507.16-13.85 507.16-8.85 507.16-3.85 507.56 0L507.56 0 496.66 0Q494.96-7.95 494.96-17.1L494.96-17.1Q494.96-18.65 495.06-21.75L495.06-21.75Q490.81-20.5 489.86-16L489.86-16 484.91-16.3 486.71-25 519.96-25Q518.96-19.5 517.66-16L517.66-16 512.61-16.3Q512.81-17.1 512.81-17.9L512.81-17.9Q512.81-19.85 511.61-20.8 510.41-21.75 508.46-21.75ZM558.26-14.2L558.26-14.2 563.01-13.9Q563.66-13.9 564.01-13.95L564.01-13.95 561.66-9.55 561.21-9.55Q560.26-9.55 558.51-10.08 556.76-10.6 556.01-10.6L556.01-10.6Q554.06-10.6 552.86-8.05L552.86-8.05Q552.61-5.2 552.61-3.55 552.61-1.9 552.71 0L552.71 0 541.86 0Q540.91-6.4 540.91-13.23 540.91-20.05 541.61-24.95L541.61-24.95 568.31-24.95Q567.41-19.55 566.71-17.4L566.71-17.4 561.31-17.15Q561.76-18.4 561.76-19.3L561.76-19.3Q561.76-21.7 558.11-21.7L558.11-21.7Q556.51-21.7 555.16-21.45L555.16-21.45Q554.06-17 553.36-12.35L553.36-12.35Q555.36-14.2 558.26-14.2ZM574.7-0.15L574.7-0.15Q570.25-5.85 570.25-11.85 570.25-17.85 575.25-22 580.25-26.15 588.05-26.15L588.05-26.15Q592.2-26.15 596.3-24.9L596.3-24.9Q599.9-20.35 599.9-15.15L599.9-15.15Q599.9-8.6 594.55-3.75 589.2 1.1 581.6 1.1L581.6 1.1Q578.35 1.1 574.7-0.15ZM582.3-21.8L582.3-21.8Q580.55-18.8 580.55-14.75 580.55-10.7 582.33-7.28 584.1-3.85 587.2-2.35L587.2-2.35Q589.55-5.35 589.55-9.3 589.55-13.25 587.63-16.65 585.7-20.05 582.3-21.8ZM632.55-16.3L632.55-16.3 632.5-14.6Q628.5-12.45 622.5-11.25L622.5-11.25Q626.8-10.1 630.8-10.1L630.8-10.1 631.85-10.1Q634.6-6.05 635.4 0L635.4 0 622.45 0Q621.95-3.5 620.43-6.03 618.9-8.55 616.7-9.45L616.7-9.45Q616.65-8.6 616.65-6.05 616.65-3.5 616.95 0L616.95 0 606.05 0Q604.6-7.25 604.6-13.48 604.6-19.7 605.3-25L605.3-25 631.4-25Q632.55-19.95 632.55-16.3ZM617.75-21.65L617.75-21.65Q617.15-17.25 616.85-13L616.85-13Q619.6-13.4 621.35-14.95L621.35-14.95Q620.4-18.3 617.75-21.65ZM675.4-22L675.4-22Q673.4-22.3 671.12-22.3 668.85-22.3 666.7-22L666.7-22Q668.05-19.7 669.9-18.25 671.75-16.8 674.57-15.38 677.4-13.95 679.17-12.75 680.95-11.55 683.1-8.8 685.25-6.05 685.8-3.05L685.8-3.05Q683.4 0.05 679.45 2.43 675.5 4.8 671.35 5.6L671.35 5.6Q668.55 5.35 664.27 4.03 660 2.7 657.85 2.7 655.7 2.7 653.55 4.05L653.55 4.05Q654.45 1.5 656.5-2.35L656.5-2.35 656.9-2.35Q660.1-2.35 662.92-1.35 665.75-0.35 668.07 0.65 670.4 1.65 671.82 1.65 673.25 1.65 673.9 1.45L673.9 1.45Q673.9-1.85 671.85-4L671.85-4Q670.75-5.15 669.97-5.78 669.2-6.4 667.6-7.5L667.6-7.5 666.75-8.1Q663.35-10.45 661.15-12.88 658.95-15.3 657.95-18.85L657.95-18.85Q659.55-22.4 661.1-25L661.1-25Q665.85-26.15 670.95-26.15L670.95-26.15 673.15-26.15Q677.45-26.15 683-24.95L683-24.95Q682.2-21.65 681.05-19L681.05-19Q676.85-18.7 674.55-18.7L674.55-18.7Q675-19.85 675.4-22ZM709.59-21.75L709.59-21.75Q708.29-13.85 708.29-8.85 708.29-3.85 708.69 0L708.69 0 697.79 0Q696.09-7.95 696.09-17.1L696.09-17.1Q696.09-18.65 696.19-21.75L696.19-21.75Q691.94-20.5 690.99-16L690.99-16 686.04-16.3 687.84-25 721.09-25Q720.09-19.5 718.79-16L718.79-16 713.74-16.3Q713.94-17.1 713.94-17.9L713.94-17.9Q713.94-19.85 712.74-20.8 711.54-21.75 709.59-21.75ZM747.74-25L754.14-25Q754.34-21.75 754.34-15.53 754.34-9.3 753.54-2.25L753.54-2.25Q748.34 1.1 741.09 1.1L741.09 1.1Q731.44 1.1 725.49-2.25L725.49-2.25Q724.84-7.65 724.84-12.73 724.84-17.8 725.59-25L725.59-25 739.04-25Q737.04-14.15 736.94-4.15L736.94-4.15Q739.04-2.25 742.99-2.25 746.94-2.25 749.04-3.65L749.04-3.65Q749.14-5.3 749.14-8.4L749.14-8.4Q749.14-16.3 747.74-25L747.74-25ZM772.04-26.15L772.04-26.15Q781.69-26.15 787.74-23.75L787.74-23.75Q789.89-19.45 789.89-15.05L789.89-15.05Q789.89-9.4 786.04-5.25L786.04-5.25Q780.44 0.7 770.89 0.7L770.89 0.7Q767.59 0.7 761.94-0.05L761.94-0.05Q759.99-10.1 759.99-18.6L759.99-18.6Q759.99-21.55 760.29-25L760.29-25Q768.34-26.15 772.04-26.15ZM773.54-22.4L773.54-22.4Q772.64-13 772.64-8.93 772.64-4.85 772.79-2.3L772.79-2.3Q775.49-3.75 777.01-7.18 778.54-10.6 778.54-14.13 778.54-17.65 777.26-19.9 775.99-22.15 773.54-22.4ZM812.94-14.95L812.94-14.95 817.64-14.65Q818.34-14.65 818.69-14.7L818.69-14.7 816.34-10.3 815.89-10.3Q814.94-10.3 813.19-10.83 811.44-11.35 810.69-11.35L810.69-11.35Q808.64-11.35 807.44-8.7L807.44-8.7Q807.24-6.25 807.14-3.8L807.14-3.8Q809.74-3.3 811.24-3.3L811.24-3.3 811.69-3.3Q813.84-3.3 815.11-4.25 816.39-5.2 816.94-7.65L816.94-7.65 822.94-7.4Q822.19-3.1 820.94 0L820.94 0 796.39 0Q795.39-6.75 795.39-13.4 795.39-20.05 796.09-25L796.09-25 822.89-25Q821.99-19.6 821.29-17.4L821.29-17.4Q818.34-17.25 815.89-17.2L815.89-17.2Q816.29-18.35 816.29-19.35L816.29-19.35Q816.29-21.75 812.69-21.75L812.69-21.75Q811.34-21.75 809.69-21.45L809.69-21.45Q808.59-16.7 807.99-13.1L807.99-13.1Q809.99-14.95 812.94-14.95ZM852.08-25L858.03-25Q858.33-19.75 858.33-13.93 858.33-8.1 857.83 0L857.83 0 853.03 0Q843.33-5.2 835.23-14.15L835.23-14.15Q835.63-10.8 835.63-7.28 835.63-3.75 835.38 0L835.38 0 829.53 0Q830.53-6.15 830.53-11.38 830.53-16.6 830.03-19.65L830.03-19.65Q828.03-22.65 826.88-25L826.88-25 841.08-25Q843.18-21.4 846.81-17.57 850.43-13.75 853.73-11.6L853.73-11.6Q853.73-18.9 852.08-25L852.08-25ZM885.08-21.75L885.08-21.75Q883.78-13.85 883.78-8.85 883.78-3.85 884.18 0L884.18 0 873.28 0Q871.58-7.95 871.58-17.1L871.58-17.1Q871.58-18.65 871.68-21.75L871.68-21.75Q867.43-20.5 866.48-16L866.48-16 861.53-16.3 863.33-25 896.58-25Q895.58-19.5 894.28-16L894.28-16 889.23-16.3Q889.43-17.1 889.43-17.9L889.43-17.9Q889.43-19.85 888.23-20.8 887.03-21.75 885.08-21.75ZM917.88-22L917.88-22Q915.88-22.3 913.6-22.3 911.33-22.3 909.18-22L909.18-22Q910.53-19.7 912.38-18.25 914.23-16.8 917.05-15.38 919.88-13.95 921.65-12.75 923.43-11.55 925.58-8.8 927.73-6.05 928.28-3.05L928.28-3.05Q925.88 0.05 921.93 2.43 917.98 4.8 913.83 5.6L913.83 5.6Q911.03 5.35 906.75 4.03 902.48 2.7 900.33 2.7 898.18 2.7 896.03 4.05L896.03 4.05Q896.93 1.5 898.98-2.35L898.98-2.35 899.38-2.35Q902.58-2.35 905.4-1.35 908.23-0.35 910.55 0.65 912.88 1.65 914.3 1.65 915.73 1.65 916.38 1.45L916.38 1.45Q916.38-1.85 914.33-4L914.33-4Q913.23-5.15 912.45-5.78 911.68-6.4 910.08-7.5L910.08-7.5 909.23-8.1Q905.83-10.45 903.63-12.88 901.43-15.3 900.43-18.85L900.43-18.85Q902.03-22.4 903.58-25L903.58-25Q908.33-26.15 913.43-26.15L913.43-26.15 915.63-26.15Q919.93-26.15 925.48-24.95L925.48-24.95Q924.68-21.65 923.53-19L923.53-19Q919.33-18.7 917.03-18.7L917.03-18.7Q917.48-19.85 917.88-22Z" opacity="1" transform="matrix(1,0,0,1,0,0)" fill="#bb84e8" class="slogan-text-1" data-fill-palette-color="secondary" id="text-1"></path></svg></g></svg></g></svg></g></svg></g><g transform="matrix(1,0,0,1,430.7952379297145,0)"><svg viewBox="0 0 244.43135999999993 238.7469097674418" height="238.7469097674418" width="244.43135999999993"><g><svg xmlns="http://www.w3.org/2000/svg" xmlns:xlink="http://www.w3.org/1999/xlink" version="1.1" x="0" y="0" viewBox="7 8 86 84" style="enable-background:new 0 0 100 100;" xml:space="preserve" height="238.7469097674418" width="244.43135999999993" class="icon-icon-0" data-fill-palette-color="accent" id="icon-0"><g fill="#bb84e8" data-fill-palette-color="accent"><path d="M81 8c-6.6 0-12 5.4-12 12s5.4 12 12 12 12-5.4 12-12S87.6 8 81 8zM81 24c-2.2 0-4-1.8-4-4s1.8-4 4-4 4 1.8 4 4S83.2 24 81 24z" fill="#bb84e8" data-fill-palette-color="accent"></path><path d="M81 38c-1.9 0-3.8 0.5-5.4 1.3L61 24.7c0.6-1.5 1-3 1-4.7 0-6.6-5.4-12-12-12s-12 5.4-12 12 5.4 12 12 12c2 0 3.9-0.5 5.6-1.4l14.5 14.5C69.4 46.6 69 48.2 69 50c0 6.6 5.4 12 12 12s12-5.4 12-12S87.6 38 81 38zM46 20c0-2.2 1.8-4 4-4s4 1.8 4 4-1.8 4-4 4S46 22.2 46 20zM81 54c-2.2 0-4-1.8-4-4s1.8-4 4-4 4 1.8 4 4S83.2 54 81 54z" fill="#bb84e8" data-fill-palette-color="accent"></path><path d="M62 50c0-6.6-5.4-12-12-12s-12 5.4-12 12 5.4 12 12 12S62 56.6 62 50zM46 50c0-2.2 1.8-4 4-4s4 1.8 4 4-1.8 4-4 4S46 52.2 46 50z" fill="#bb84e8" data-fill-palette-color="accent"></path><path d="M19 92c6.6 0 12-5.4 12-12s-5.4-12-12-12S7 73.4 7 80 12.4 92 19 92zM19 76c2.2 0 4 1.8 4 4s-1.8 4-4 4-4-1.8-4-4S16.8 76 19 76z" fill="#bb84e8" data-fill-palette-color="accent"></path><path d="M81 68c-5.2 0-9.6 3.3-11.3 8h-8.4c-1.7-4.7-6.1-8-11.3-8-3 0-5.7 1.1-7.7 2.8L28.6 57.2c1.5-2 2.4-4.5 2.4-7.2 0-5.2-3.3-9.6-8-11.3v-7.4c4.7-1.7 8-6.1 8-11.3 0-6.6-5.4-12-12-12S7 13.4 7 20c0 5.2 3.3 9.6 8 11.3v7.4c-4.7 1.7-8 6.1-8 11.3 0 6.6 5.4 12 12 12 1 0 1.9-0.1 2.8-0.3l16.4 16.4C38.1 78.7 38 79.3 38 80c0 6.6 5.4 12 12 12 5.2 0 9.6-3.3 11.3-8h8.4c1.7 4.7 6.1 8 11.3 8 6.6 0 12-5.4 12-12S87.6 68 81 68zM19 16c2.2 0 4 1.8 4 4s-1.8 4-4 4-4-1.8-4-4S16.8 16 19 16zM15 50c0-2.2 1.8-4 4-4s4 1.8 4 4-1.8 4-4 4S15 52.2 15 50zM50 84c-2.2 0-4-1.8-4-4s1.8-4 4-4 4 1.8 4 4S52.2 84 50 84zM81 84c-2.2 0-4-1.8-4-4s1.8-4 4-4 4 1.8 4 4S83.2 84 81 84z" fill="#bb84e8" data-fill-palette-color="accent"></path></g></svg></g></svg></g></svg></g><defs></defs></svg><rect width="395.52" height="139.84813104333293" fill="none" stroke="none" visibility="hidden"></rect></g></svg></g></svg>